<?xml version="1.0" encoding="UTF-8" standalone="no"?>
<!DOCTYPE svg PUBLIC "-//W3C//DTD SVG 1.1//EN"
 "http://www.w3.org/Graphics/SVG/1.1/DTD/svg11.dtd">
<!-- Generated by graphviz version 2.42.3 (20191010.1750)
 -->
<!-- Title: G Pages: 1 -->
<svg width="465pt" height="180pt"
 viewBox="0.00 0.00 464.92 180.00" xmlns="http://www.w3.org/2000/svg" xmlns:xlink="http://www.w3.org/1999/xlink">
<g id="graph0" class="graph" transform="scale(1 1) rotate(0) translate(4 176)">
<title>G</title>
<polygon fill="white" stroke="transparent" points="-4,4 -4,-176 460.92,-176 460.92,4 -4,4"/>
<!-- n1p1 -->
<!-- n1p2 -->
<!-- n1p1&#45;&gt;n1p2 -->
<!-- n3 -->
<!-- stack -->
<g id="n3" class="node">
<title>n3</title>
<polygon fill="none" stroke="black" points="105.13,-74 105.13,-98 225.13,-98 225.13,-74 105.13,-74"/>
<text text-anchor="start" x="148.79" y="-81.8" font-family="Serif" font-size="14.00">stack</text>
</g>
<!-- n1p1&#45;&gt;n3 -->
<!-- holding	?x -->
<g id="e1" class="edge">
<title>n1p1:s&#45;&gt;n3:n</title>
<path fill="none" stroke="black" d="M146.13,-148C146.13,-133.66 126.09,-142.66 119.35,-130 116.42,-124.51 117.15,-121.82 119.35,-116 122.33,-108.06 130.58,-108.1 133.81,-103.06"/>
<polygon fill="black" stroke="black" points="135.56,-103.28 135.13,-98 132.18,-102.4 135.56,-103.28"/>
<text text-anchor="middle" x="155.52" y="-118.8" font-family="Serif" font-size="14.00">holding	?x</text>
</g>
<!-- n1p2&#45;&gt;n3 -->
<!-- clear	?x -->
<g id="e2" class="edge">
<title>n1p2:s&#45;&gt;n3:n</title>
<path fill="none" stroke="black" d="M197.13,-148C197.13,-127.67 195.46,-121.31 195.17,-103.38"/>
<polygon fill="black" stroke="black" points="196.92,-102.99 195.13,-98 193.42,-103.01 196.92,-102.99"/>
<text text-anchor="middle" x="231.52" y="-118.8" font-family="Serif" font-size="14.00">clear	?x</text>
</g>
<!-- n2p1 -->
<!-- n2p2 -->
<!-- n2p1&#45;&gt;n2p2 -->
<!-- n2p3 -->
<!-- n2p2&#45;&gt;n2p3 -->
<!-- n2p4 -->
<!-- n2p3&#45;&gt;n2p4 -->
<!-- n2p5 -->
<!-- n2p4&#45;&gt;n2p5 -->
<!-- n3&#45;&gt;n2p1 -->
<!-- clear	?x -->
<g id="e3" class="edge">
<title>n3:s&#45;&gt;n2p1:n</title>
<path fill="none" stroke="black" d="M117.13,-74C117.13,-48.4 19.97,-75.47 3.35,-56 -4.83,-46.43 4.97,-40.12 7.54,-29.06"/>
<polygon fill="black" stroke="black" points="9.29,-29.17 8.13,-24 5.81,-28.76 9.29,-29.17"/>
<text text-anchor="middle" x="39.52" y="-44.8" font-family="Serif" font-size="14.00">clear	?x</text>
</g>
<!-- n3&#45;&gt;n2p2 -->
<!-- handempty -->
<g id="e4" class="edge">
<title>n3:s&#45;&gt;n2p2:n</title>
<path fill="none" stroke="black" d="M141.13,-74C141.13,-50.69 109.76,-70.94 91.86,-56 80.6,-46.59 74.54,-41.63 73.35,-29.02"/>
<polygon fill="black" stroke="black" points="75.1,-28.92 73.13,-24 71.6,-29.07 75.1,-28.92"/>
<text text-anchor="middle" x="126.77" y="-44.8" font-family="Serif" font-size="14.00">handempty</text>
</g>
<!-- n3&#45;&gt;n2p3 -->
<!-- on	?x	?y -->
<g id="e5" class="edge">
<title>n3:s&#45;&gt;n2p3:n</title>
<path fill="none" stroke="black" d="M165.13,-74C165.13,-53.69 165.13,-47.3 165.13,-29.38"/>
<polygon fill="black" stroke="black" points="166.88,-29 165.13,-24 163.38,-29 166.88,-29"/>
<text text-anchor="middle" x="200.52" y="-44.8" font-family="Serif" font-size="14.00">on	?x	?y</text>
</g>
<!-- n3&#45;&gt;n2p4 -->
<!-- &not;	holding	?x -->
<g id="e6" class="edge">
<title>n3:s&#45;&gt;n2p4:n</title>
<path fill="none" stroke="black" d="M189.13,-74C189.13,-51.22 219.18,-70.03 237.13,-56 249.24,-46.53 257.23,-42.24 258.83,-29.22"/>
<polygon fill="black" stroke="black" points="260.59,-29.09 259.13,-24 257.1,-28.89 260.59,-29.09"/>
<text text-anchor="middle" x="302.52" y="-44.8" font-family="Serif" font-size="14.00">¬	holding	?x</text>
</g>
<!-- n3&#45;&gt;n2p5 -->
<!-- &not;	clear	?x -->
<g id="e7" class="edge">
<title>n3:s&#45;&gt;n2p5:n</title>
<path fill="none" stroke="black" d="M213.13,-74C213.13,-41.97 334.95,-80.02 356.13,-56 360.25,-51.33 358.51,-47.75 356.13,-42 352.61,-33.51 342.93,-34.4 339.42,-28.97"/>
<polygon fill="black" stroke="black" points="341.08,-28.4 338.13,-24 337.69,-29.28 341.08,-28.4"/>
<text text-anchor="middle" x="407.52" y="-44.8" font-family="Serif" font-size="14.00">¬	clear	?x</text>
</g>
</g>
</svg>
