<?xml version="1.0" encoding="UTF-8" standalone="no"?>
<!DOCTYPE svg PUBLIC "-//W3C//DTD SVG 1.1//EN"
 "http://www.w3.org/Graphics/SVG/1.1/DTD/svg11.dtd">
<!-- Generated by graphviz version 2.42.3 (20191010.1750)
 -->
<!-- Title: G Pages: 1 -->
<svg width="493pt" height="180pt"
 viewBox="0.00 0.00 492.92 180.00" xmlns="http://www.w3.org/2000/svg" xmlns:xlink="http://www.w3.org/1999/xlink">
<g id="graph0" class="graph" transform="scale(1 1) rotate(0) translate(4 176)">
<title>G</title>
<polygon fill="white" stroke="transparent" points="-4,4 -4,-176 488.92,-176 488.92,4 -4,4"/>
<!-- n1p1 -->
<!-- n1p2 -->
<!-- n1p1&#45;&gt;n1p2 -->
<!-- n3 -->
<!-- unstack -->
<g id="n3" class="node">
<title>n3</title>
<polygon fill="none" stroke="black" points="107.14,-74 107.14,-98 227.14,-98 227.14,-74 107.14,-74"/>
<text text-anchor="start" x="143.01" y="-81.8" font-family="Serif" font-size="14.00">unstack</text>
</g>
<!-- n1p1&#45;&gt;n3 -->
<!-- on	?x	?y -->
<g id="e1" class="edge">
<title>n1p1:s&#45;&gt;n3:n</title>
<path fill="none" stroke="black" d="M102.14,-148C102.14,-138.89 94.6,-138.83 92.35,-130 90.82,-123.97 89.12,-121.32 92.35,-116 100.34,-102.87 121.34,-112.46 126.15,-102.91"/>
<polygon fill="black" stroke="black" points="127.86,-103.25 127.14,-98 124.43,-102.55 127.86,-103.25"/>
<text text-anchor="middle" x="128.53" y="-118.8" font-family="Serif" font-size="14.00">on	?x	?y</text>
</g>
<!-- n1p3 -->
<!-- n1p2&#45;&gt;n1p3 -->
<!-- n1p2&#45;&gt;n3 -->
<!-- clear	?x -->
<g id="e2" class="edge">
<title>n1p2:s&#45;&gt;n3:n</title>
<path fill="none" stroke="black" d="M167.14,-148C167.14,-127.69 167.14,-121.3 167.14,-103.38"/>
<polygon fill="black" stroke="black" points="168.89,-103 167.14,-98 165.39,-103 168.89,-103"/>
<text text-anchor="middle" x="202.53" y="-118.8" font-family="Serif" font-size="14.00">clear	?x</text>
</g>
<!-- n1p3&#45;&gt;n3 -->
<!-- handempty -->
<g id="e3" class="edge">
<title>n1p3:s&#45;&gt;n3:n</title>
<path fill="none" stroke="black" d="M232.14,-148C232.14,-139.42 237.56,-138.44 239.14,-130 240.29,-123.88 242.28,-121.37 239.14,-116 232.06,-103.9 213.51,-111.35 208.44,-103.33"/>
<polygon fill="black" stroke="black" points="210.02,-102.44 207.14,-98 206.62,-103.27 210.02,-102.44"/>
<text text-anchor="middle" x="274.77" y="-118.8" font-family="Serif" font-size="14.00">handempty</text>
</g>
<!-- n2p1 -->
<!-- n2p2 -->
<!-- n2p1&#45;&gt;n2p2 -->
<!-- n2p3 -->
<!-- n2p2&#45;&gt;n2p3 -->
<!-- n2p4 -->
<!-- n2p3&#45;&gt;n2p4 -->
<!-- n2p5 -->
<!-- n2p4&#45;&gt;n2p5 -->
<!-- n3&#45;&gt;n2p1 -->
<!-- holding	?x -->
<g id="e4" class="edge">
<title>n3:s&#45;&gt;n2p1:n</title>
<path fill="none" stroke="black" d="M119.14,-74C119.14,-47.96 20.29,-75.78 3.35,-56 -4.83,-46.44 4.97,-40.12 7.55,-29.06"/>
<polygon fill="black" stroke="black" points="9.3,-29.17 8.14,-24 5.82,-28.76 9.3,-29.17"/>
<text text-anchor="middle" x="39.53" y="-44.8" font-family="Serif" font-size="14.00">holding	?x</text>
</g>
<!-- n3&#45;&gt;n2p2 -->
<!-- clear	?x -->
<g id="e5" class="edge">
<title>n3:s&#45;&gt;n2p2:n</title>
<path fill="none" stroke="black" d="M143.14,-74C143.14,-50.05 110.89,-71.16 92.35,-56 80.91,-46.65 74.61,-41.73 73.37,-29.05"/>
<polygon fill="black" stroke="black" points="75.11,-28.92 73.14,-24 71.62,-29.07 75.11,-28.92"/>
<text text-anchor="middle" x="128.53" y="-44.8" font-family="Serif" font-size="14.00">clear	?x</text>
</g>
<!-- n3&#45;&gt;n2p3 -->
<!-- &not;	clear	?x -->
<g id="e6" class="edge">
<title>n3:s&#45;&gt;n2p3:n</title>
<path fill="none" stroke="black" d="M167.14,-74C167.14,-53.69 167.14,-47.3 167.14,-29.38"/>
<polygon fill="black" stroke="black" points="168.89,-29 167.14,-24 165.39,-29 168.89,-29"/>
<text text-anchor="middle" x="216.53" y="-44.8" font-family="Serif" font-size="14.00">¬	clear	?x</text>
</g>
<!-- n3&#45;&gt;n2p4 -->
<!-- &not;	handempty -->
<g id="e7" class="edge">
<title>n3:s&#45;&gt;n2p4:n</title>
<path fill="none" stroke="black" d="M191.14,-74C191.14,-39.29 238.5,-75.62 267.14,-56 279.82,-47.31 287.36,-42.41 288.86,-29.25"/>
<polygon fill="black" stroke="black" points="290.62,-29.09 289.14,-24 287.13,-28.9 290.62,-29.09"/>
<text text-anchor="middle" x="331.77" y="-44.8" font-family="Serif" font-size="14.00">¬	handempty</text>
</g>
<!-- n3&#45;&gt;n2p5 -->
<!-- &not;	on	?x	?y -->
<g id="e8" class="edge">
<title>n3:s&#45;&gt;n2p5:n</title>
<path fill="none" stroke="black" d="M215.14,-74C215.14,-36.23 358.89,-84.08 384.14,-56 388.3,-51.37 386.44,-47.78 384.14,-42 380.83,-33.69 371.68,-34.27 368.36,-28.87"/>
<polygon fill="black" stroke="black" points="370.05,-28.42 367.14,-24 366.66,-29.28 370.05,-28.42"/>
<text text-anchor="middle" x="435.53" y="-44.8" font-family="Serif" font-size="14.00">¬	on	?x	?y</text>
</g>
</g>
</svg>
