<?xml version="1.0" encoding="UTF-8" standalone="no"?>
<!DOCTYPE svg PUBLIC "-//W3C//DTD SVG 1.1//EN"
 "http://www.w3.org/Graphics/SVG/1.1/DTD/svg11.dtd">
<!-- Generated by graphviz version 2.42.3 (20191010.1750)
 -->
<!-- Title: G Pages: 1 -->
<svg width="345pt" height="180pt"
 viewBox="0.00 0.00 344.98 180.00" xmlns="http://www.w3.org/2000/svg" xmlns:xlink="http://www.w3.org/1999/xlink">
<g id="graph0" class="graph" transform="scale(1 1) rotate(0) translate(4 176)">
<title>G</title>
<polygon fill="white" stroke="transparent" points="-4,4 -4,-176 340.98,-176 340.98,4 -4,4"/>
<!-- n1p1 -->
<!-- n3 -->
<!-- put&#45;down -->
<g id="n3" class="node">
<title>n3</title>
<polygon fill="none" stroke="black" points="77.19,-74 77.19,-98 173.19,-98 173.19,-74 77.19,-74"/>
<text text-anchor="start" x="96.4" y="-81.8" font-family="Serif" font-size="14.00">put&#45;down</text>
</g>
<!-- n1p1&#45;&gt;n3 -->
<!-- holding	?x -->
<g id="e1" class="edge">
<title>n1p1:s&#45;&gt;n3:n</title>
<path fill="none" stroke="black" d="M125.19,-148C125.19,-127.69 125.19,-121.3 125.19,-103.38"/>
<polygon fill="black" stroke="black" points="126.94,-103 125.19,-98 123.44,-103 126.94,-103"/>
<text text-anchor="middle" x="160.59" y="-118.8" font-family="Serif" font-size="14.00">holding	?x</text>
</g>
<!-- n2p1 -->
<!-- n2p2 -->
<!-- n2p1&#45;&gt;n2p2 -->
<!-- n2p3 -->
<!-- n2p2&#45;&gt;n2p3 -->
<!-- n2p4 -->
<!-- n2p3&#45;&gt;n2p4 -->
<!-- n3&#45;&gt;n2p1 -->
<!-- clear	?x -->
<g id="e2" class="edge">
<title>n3:s&#45;&gt;n2p1:n</title>
<path fill="none" stroke="black" d="M89.19,-74C89.19,-34.61 27.27,-86.55 2.41,-56 -1.52,-51.17 0.63,-47.96 2.41,-42 4.54,-34.84 10.54,-33.72 13.06,-29.01"/>
<polygon fill="black" stroke="black" points="14.79,-29.26 14.19,-24 11.38,-28.49 14.79,-29.26"/>
<text text-anchor="middle" x="38.59" y="-44.8" font-family="Serif" font-size="14.00">clear	?x</text>
</g>
<!-- n3&#45;&gt;n2p2 -->
<!-- handempty -->
<g id="e3" class="edge">
<title>n3:s&#45;&gt;n2p2:n</title>
<path fill="none" stroke="black" d="M113.19,-74C113.19,-57.19 88.7,-70.34 79.93,-56 73.49,-45.48 77.67,-39.84 78.89,-29.25"/>
<polygon fill="black" stroke="black" points="80.65,-29.09 79.19,-24 77.16,-28.89 80.65,-29.09"/>
<text text-anchor="middle" x="114.83" y="-44.8" font-family="Serif" font-size="14.00">handempty</text>
</g>
<!-- n3&#45;&gt;n2p3 -->
<!-- ontable	?x -->
<g id="e4" class="edge">
<title>n3:s&#45;&gt;n2p3:n</title>
<path fill="none" stroke="black" d="M137.19,-74C137.19,-72.61 160.51,-40.38 168.53,-28.39"/>
<polygon fill="black" stroke="black" points="170.1,-29.18 171.19,-24 167.1,-27.37 170.1,-29.18"/>
<text text-anchor="middle" x="194.59" y="-44.8" font-family="Serif" font-size="14.00">ontable	?x</text>
</g>
<!-- n3&#45;&gt;n2p4 -->
<!-- &not;	holding	?x -->
<g id="e5" class="edge">
<title>n3:s&#45;&gt;n2p4:n</title>
<path fill="none" stroke="black" d="M161.19,-74C161.19,-40.58 212.78,-81.65 234.19,-56 242.19,-46.43 237.72,-40.02 236.48,-29.02"/>
<polygon fill="black" stroke="black" points="238.23,-28.89 236.19,-24 234.73,-29.09 238.23,-28.89"/>
<text text-anchor="middle" x="287.59" y="-44.8" font-family="Serif" font-size="14.00">¬	holding	?x</text>
</g>
</g>
</svg>
