<?xml version="1.0" encoding="UTF-8" standalone="no"?>
<!DOCTYPE svg PUBLIC "-//W3C//DTD SVG 1.1//EN"
 "http://www.w3.org/Graphics/SVG/1.1/DTD/svg11.dtd">
<!-- Generated by graphviz version 2.42.3 (20191010.1750)
 -->
<!-- Title: G Pages: 1 -->
<svg width="404pt" height="180pt"
 viewBox="0.00 0.00 404.50 180.00" xmlns="http://www.w3.org/2000/svg" xmlns:xlink="http://www.w3.org/1999/xlink">
<g id="graph0" class="graph" transform="scale(1 1) rotate(0) translate(4 176)">
<title>G</title>
<polygon fill="white" stroke="transparent" points="-4,4 -4,-176 400.5,-176 400.5,4 -4,4"/>
<!-- n1p1 -->
<!-- n1p2 -->
<!-- n1p1&#45;&gt;n1p2 -->
<!-- n3 -->
<!-- pick&#45;up -->
<g id="n3" class="node">
<title>n3</title>
<polygon fill="none" stroke="black" points="92.23,-74 92.23,-98 188.23,-98 188.23,-74 92.23,-74"/>
<text text-anchor="start" x="117.66" y="-81.8" font-family="Serif" font-size="14.00">pick&#45;up</text>
</g>
<!-- n1p1&#45;&gt;n3 -->
<!-- clear	?x -->
<g id="e1" class="edge">
<title>n1p1:s&#45;&gt;n3:n</title>
<path fill="none" stroke="black" d="M75.23,-148C75.23,-138.89 67.69,-138.83 65.44,-130 63.91,-123.97 62,-121.18 65.44,-116 75.7,-100.56 102.06,-114.99 107.31,-103.12"/>
<polygon fill="black" stroke="black" points="109.07,-103.23 108.23,-98 105.63,-102.61 109.07,-103.23"/>
<text text-anchor="middle" x="101.62" y="-118.8" font-family="Serif" font-size="14.00">clear	?x</text>
</g>
<!-- n1p3 -->
<!-- n1p2&#45;&gt;n1p3 -->
<!-- n1p2&#45;&gt;n3 -->
<!-- ontable	?x -->
<g id="e2" class="edge">
<title>n1p2:s&#45;&gt;n3:n</title>
<path fill="none" stroke="black" d="M140.23,-148C140.23,-127.69 140.23,-121.3 140.23,-103.38"/>
<polygon fill="black" stroke="black" points="141.98,-103 140.23,-98 138.48,-103 141.98,-103"/>
<text text-anchor="middle" x="175.62" y="-118.8" font-family="Serif" font-size="14.00">ontable	?x</text>
</g>
<!-- n1p3&#45;&gt;n3 -->
<!-- handempty -->
<g id="e3" class="edge">
<title>n1p3:s&#45;&gt;n3:n</title>
<path fill="none" stroke="black" d="M205.23,-148C205.23,-133.44 220.13,-128.23 212.23,-116 202.8,-101.42 178.44,-114 173.22,-103.15"/>
<polygon fill="black" stroke="black" points="174.89,-102.58 172.23,-98 171.46,-103.24 174.89,-102.58"/>
<text text-anchor="middle" x="248.86" y="-118.8" font-family="Serif" font-size="14.00">handempty</text>
</g>
<!-- n2p1 -->
<!-- n2p2 -->
<!-- n2p1&#45;&gt;n2p2 -->
<!-- n2p3 -->
<!-- n2p2&#45;&gt;n2p3 -->
<!-- n2p4 -->
<!-- n2p3&#45;&gt;n2p4 -->
<!-- n3&#45;&gt;n2p1 -->
<!-- holding	?x -->
<g id="e4" class="edge">
<title>n3:s&#45;&gt;n2p1:n</title>
<path fill="none" stroke="black" d="M104.23,-74C104.23,-28.06 31.96,-91.2 2.44,-56 -1.55,-51.23 0.67,-47.96 2.44,-42 4.58,-34.84 10.57,-33.72 13.09,-29.01"/>
<polygon fill="black" stroke="black" points="14.83,-29.26 14.23,-24 11.42,-28.49 14.83,-29.26"/>
<text text-anchor="middle" x="38.62" y="-44.8" font-family="Serif" font-size="14.00">holding	?x</text>
</g>
<!-- n3&#45;&gt;n2p2 -->
<!-- &not;	ontable	?x -->
<g id="e5" class="edge">
<title>n3:s&#45;&gt;n2p2:n</title>
<path fill="none" stroke="black" d="M128.23,-74C128.23,-51.3 93.71,-74.41 80.44,-56 73.23,-45.99 77.61,-39.98 78.91,-29.28"/>
<polygon fill="black" stroke="black" points="80.67,-29.1 79.23,-24 77.18,-28.88 80.67,-29.1"/>
<text text-anchor="middle" x="130.62" y="-44.8" font-family="Serif" font-size="14.00">¬	ontable	?x</text>
</g>
<!-- n3&#45;&gt;n2p3 -->
<!-- &not;	clear	?x -->
<g id="e6" class="edge">
<title>n3:s&#45;&gt;n2p3:n</title>
<path fill="none" stroke="black" d="M152.23,-74C152.23,-59.58 168.96,-66.12 179.23,-56 190.18,-45.21 199.08,-41.95 200.89,-29.17"/>
<polygon fill="black" stroke="black" points="202.65,-29.1 201.23,-24 199.16,-28.87 202.65,-29.1"/>
<text text-anchor="middle" x="243.62" y="-44.8" font-family="Serif" font-size="14.00">¬	clear	?x</text>
</g>
<!-- n3&#45;&gt;n2p4 -->
<!-- &not;	handempty -->
<g id="e7" class="edge">
<title>n3:s&#45;&gt;n2p4:n</title>
<path fill="none" stroke="black" d="M176.23,-74C176.23,-46.82 279.48,-76.59 297.23,-56 301.29,-51.29 299.53,-47.78 297.23,-42 293.93,-33.69 284.77,-34.27 281.45,-28.87"/>
<polygon fill="black" stroke="black" points="283.14,-28.42 280.23,-24 279.75,-29.28 283.14,-28.42"/>
<text text-anchor="middle" x="347.86" y="-44.8" font-family="Serif" font-size="14.00">¬	handempty</text>
</g>
</g>
</svg>
