<?xml version="1.0" encoding="UTF-8" standalone="no"?>
<!DOCTYPE svg PUBLIC "-//W3C//DTD SVG 1.1//EN"
 "http://www.w3.org/Graphics/SVG/1.1/DTD/svg11.dtd">
<!-- Generated by graphviz version 2.42.3 (20191010.1750)
 -->
<!-- Title: G Pages: 1 -->
<svg width="1552pt" height="402pt"
 viewBox="0.00 0.00 1552.15 402.00" xmlns="http://www.w3.org/2000/svg" xmlns:xlink="http://www.w3.org/1999/xlink">
<g id="graph0" class="graph" transform="scale(1 1) rotate(0) translate(4 398)">
<title>G</title>
<polygon fill="white" stroke="transparent" points="-4,4 -4,-398 1548.15,-398 1548.15,4 -4,4"/>
<!-- n1p1 -->
<!-- n1p2 -->
<!-- n1p1&#45;&gt;n1p2 -->
<!-- n5 -->
<!-- pick&#45;up -->
<g id="n5" class="node">
<title>n5</title>
<polygon fill="none" stroke="black" points="544.37,-148 544.37,-172 640.37,-172 640.37,-148 544.37,-148"/>
<text text-anchor="start" x="569.8" y="-155.8" font-family="Serif" font-size="14.00">pick&#45;up</text>
</g>
<!-- n1p1&#45;&gt;n5 -->
<!-- clear	c -->
<g id="e6" class="edge">
<title>n1p1:s&#45;&gt;n5:n</title>
<path fill="none" stroke="black" d="M585.37,-370C585.37,-327.74 566.94,-319.89 561.37,-278 555.38,-233.03 559.99,-220.07 560.35,-177.1"/>
<polygon fill="black" stroke="black" points="562.1,-177.01 560.37,-172 558.6,-176.99 562.1,-177.01"/>
<text text-anchor="middle" x="592.87" y="-266.8" font-family="Serif" font-size="14.00">clear	c</text>
</g>
<!-- n1p3 -->
<!-- n1p2&#45;&gt;n1p3 -->
<!-- n1p2&#45;&gt;n5 -->
<!-- ontable	c -->
<g id="e7" class="edge">
<title>n1p2:s&#45;&gt;n5:n</title>
<path fill="none" stroke="black" d="M646.37,-370C646.37,-321.88 637.19,-310.38 624.37,-264 613.33,-224.07 594.11,-215.96 592.48,-177.39"/>
<polygon fill="black" stroke="black" points="594.22,-176.96 592.37,-172 590.72,-177.04 594.22,-176.96"/>
<text text-anchor="middle" x="659.87" y="-266.8" font-family="Serif" font-size="14.00">ontable	c</text>
</g>
<!-- n1p4 -->
<!-- n1p3&#45;&gt;n1p4 -->
<!-- n3 -->
<!-- pick&#45;up -->
<g id="n3" class="node">
<title>n3</title>
<polygon fill="none" stroke="black" points="1038.37,-296 1038.37,-320 1134.37,-320 1134.37,-296 1038.37,-296"/>
<text text-anchor="start" x="1063.8" y="-303.8" font-family="Serif" font-size="14.00">pick&#45;up</text>
</g>
<!-- n1p3&#45;&gt;n3 -->
<!-- clear	b -->
<g id="e2" class="edge">
<title>n1p3:s&#45;&gt;n3:n</title>
<path fill="none" stroke="black" d="M944.37,-370C944.37,-352.17 953.52,-347.55 968.58,-338 999.81,-318.2 1049.05,-354.87 1053.97,-325.33"/>
<polygon fill="black" stroke="black" points="1055.74,-325.12 1054.37,-320 1052.25,-324.86 1055.74,-325.12"/>
<text text-anchor="middle" x="1000.26" y="-340.8" font-family="Serif" font-size="14.00">clear	b</text>
</g>
<!-- n1p5 -->
<!-- n1p4&#45;&gt;n1p5 -->
<!-- n1p4&#45;&gt;n3 -->
<!-- ontable	b -->
<g id="e3" class="edge">
<title>n1p4:s&#45;&gt;n3:n</title>
<path fill="none" stroke="black" d="M1031.37,-370C1031.37,-353.41 1038.42,-349.28 1050.58,-338 1062.1,-327.31 1081.17,-335.34 1085.48,-325.12"/>
<polygon fill="black" stroke="black" points="1087.24,-325.22 1086.37,-320 1083.79,-324.63 1087.24,-325.22"/>
<text text-anchor="middle" x="1082.26" y="-340.8" font-family="Serif" font-size="14.00">ontable	b</text>
</g>
<!-- n1p6 -->
<!-- n1p5&#45;&gt;n1p6 -->
<!-- n1p5&#45;&gt;n3 -->
<!-- handempty -->
<g id="e4" class="edge">
<title>n1p5:s&#45;&gt;n3:n</title>
<path fill="none" stroke="black" d="M1118.37,-370C1118.37,-349.69 1118.37,-343.3 1118.37,-325.38"/>
<polygon fill="black" stroke="black" points="1120.12,-325 1118.37,-320 1116.62,-325 1120.12,-325"/>
<text text-anchor="middle" x="1153" y="-340.8" font-family="Serif" font-size="14.00">handempty</text>
</g>
<!-- n1p7 -->
<!-- n1p6&#45;&gt;n1p7 -->
<!-- n4 -->
<!-- stack -->
<g id="n4" class="node">
<title>n4</title>
<polygon fill="none" stroke="black" points="824.37,-222 824.37,-246 944.37,-246 944.37,-222 824.37,-222"/>
<text text-anchor="start" x="868.03" y="-229.8" font-family="Serif" font-size="14.00">stack</text>
</g>
<!-- n1p6&#45;&gt;n4 -->
<!-- clear	a -->
<g id="e5" class="edge">
<title>n1p6:s&#45;&gt;n4:n</title>
<path fill="none" stroke="black" d="M1202.37,-370C1202.37,-293.01 1139.88,-283.34 1065.37,-264 1050.54,-260.15 938.57,-262.37 917.71,-250.25"/>
<polygon fill="black" stroke="black" points="918.83,-248.85 914.37,-246 916.08,-251.01 918.83,-248.85"/>
<text text-anchor="middle" x="1220.26" y="-303.8" font-family="Serif" font-size="14.00">clear	a</text>
</g>
<!-- n2p15 -->
<!-- n1p7&#45;&gt;n2p15 -->
<!-- ontable	a -->
<g id="e1" class="edge">
<title>n1p7:s&#45;&gt;n2p15:n</title>
<path fill="none" stroke="black" d="M1359.37,-370C1359.37,-309.77 1480.37,-369.23 1480.37,-309 1480.37,-309 1480.37,-309 1480.37,-85 1480.37,-53.4 1441.05,-56.9 1436.75,-29.14"/>
<polygon fill="black" stroke="black" points="1438.48,-28.86 1436.37,-24 1434.99,-29.12 1438.48,-28.86"/>
<text text-anchor="middle" x="1512.26" y="-192.8" font-family="Serif" font-size="14.00">ontable	a</text>
</g>
<!-- n2p1 -->
<!-- n2p2 -->
<!-- n2p1&#45;&gt;n2p2 -->
<!-- n2p3 -->
<!-- n2p2&#45;&gt;n2p3 -->
<!-- n2p4 -->
<!-- n2p3&#45;&gt;n2p4 -->
<!-- n2p5 -->
<!-- n2p4&#45;&gt;n2p5 -->
<!-- n2p6 -->
<!-- n2p5&#45;&gt;n2p6 -->
<!-- n2p7 -->
<!-- n2p6&#45;&gt;n2p7 -->
<!-- n2p8 -->
<!-- n2p7&#45;&gt;n2p8 -->
<!-- n2p9 -->
<!-- n2p8&#45;&gt;n2p9 -->
<!-- n2p10 -->
<!-- n2p9&#45;&gt;n2p10 -->
<!-- n2p11 -->
<!-- n2p10&#45;&gt;n2p11 -->
<!-- n2p12 -->
<!-- n2p11&#45;&gt;n2p12 -->
<!-- n2p13 -->
<!-- n2p12&#45;&gt;n2p13 -->
<!-- n2p14 -->
<!-- n2p13&#45;&gt;n2p14 -->
<!-- n2p14&#45;&gt;n2p15 -->
<!-- n3&#45;&gt;n2p12 -->
<!-- &not;	ontable	b -->
<g id="e8" class="edge">
<title>n3:s&#45;&gt;n2p12:n</title>
<path fill="none" stroke="black" d="M1074.37,-296C1074.37,-174.26 1128.85,-148.13 1130.33,-29.01"/>
<polygon fill="black" stroke="black" points="1132.08,-29.01 1130.37,-24 1128.58,-28.99 1132.08,-29.01"/>
<text text-anchor="middle" x="1152.26" y="-155.8" font-family="Serif" font-size="14.00">¬	ontable	b</text>
</g>
<!-- n3&#45;&gt;n2p13 -->
<!-- &not;	clear	b -->
<g id="e9" class="edge">
<title>n3:s&#45;&gt;n2p13:n</title>
<path fill="none" stroke="black" d="M1098.37,-296C1098.37,-232.58 1227.37,-298.42 1227.37,-235 1227.37,-235 1227.37,-235 1227.37,-85 1227.37,-59.69 1227.37,-52.1 1227.37,-29.14"/>
<polygon fill="black" stroke="black" points="1229.12,-29 1227.37,-24 1225.62,-29 1229.12,-29"/>
<text text-anchor="middle" x="1273.26" y="-155.8" font-family="Serif" font-size="14.00">¬	clear	b</text>
</g>
<!-- n3&#45;&gt;n2p14 -->
<!-- &not;	handempty -->
<g id="e10" class="edge">
<title>n3:s&#45;&gt;n2p14:n</title>
<path fill="none" stroke="black" d="M1122.37,-296C1122.37,-282.62 1355.37,-248.38 1355.37,-235 1355.37,-235 1355.37,-235 1355.37,-85 1355.37,-59.69 1355.37,-52.1 1355.37,-29.14"/>
<polygon fill="black" stroke="black" points="1357.12,-29 1355.37,-24 1353.62,-29 1357.12,-29"/>
<text text-anchor="middle" x="1404" y="-155.8" font-family="Serif" font-size="14.00">¬	handempty</text>
</g>
<!-- n3&#45;&gt;n4 -->
<!-- holding	b -->
<g id="e11" class="edge">
<title>n3:s&#45;&gt;n4:n</title>
<path fill="none" stroke="black" d="M1050.37,-296C1050.37,-275.11 880.96,-269.27 857.14,-250.49"/>
<polygon fill="black" stroke="black" points="858.48,-249.34 854.37,-246 855.5,-251.17 858.48,-249.34"/>
<text text-anchor="middle" x="1029.26" y="-266.8" font-family="Serif" font-size="14.00">holding	b</text>
</g>
<!-- n4&#45;&gt;n2p9 -->
<!-- on	b	a -->
<g id="e12" class="edge">
<title>n4:s&#45;&gt;n2p9:n</title>
<path fill="none" stroke="black" d="M884.37,-222C884.37,-176.72 850.56,-174.17 840.58,-130 839.21,-123.93 840.45,-122.22 840.58,-116 841.39,-76.84 844.12,-65.85 844.35,-29.11"/>
<polygon fill="black" stroke="black" points="846.1,-29.01 844.37,-24 842.6,-28.99 846.1,-29.01"/>
<text text-anchor="middle" x="872.26" y="-118.8" font-family="Serif" font-size="14.00">on	b	a</text>
</g>
<!-- n4&#45;&gt;n2p10 -->
<!-- &not;	holding	b -->
<g id="e13" class="edge">
<title>n4:s&#45;&gt;n2p10:n</title>
<path fill="none" stroke="black" d="M908.37,-222C908.37,-135.72 908.37,-112.88 908.37,-29.08"/>
<polygon fill="black" stroke="black" points="910.12,-29 908.37,-24 906.62,-29 910.12,-29"/>
<text text-anchor="middle" x="954.26" y="-118.8" font-family="Serif" font-size="14.00">¬	holding	b</text>
</g>
<!-- n4&#45;&gt;n2p11 -->
<!-- &not;	clear	a -->
<g id="e14" class="edge">
<title>n4:s&#45;&gt;n2p11:n</title>
<path fill="none" stroke="black" d="M932.37,-222C932.37,-170.89 980.34,-176.58 1001.37,-130 1020.43,-87.77 1023.18,-73.2 1023.36,-29.22"/>
<polygon fill="black" stroke="black" points="1025.11,-29 1023.37,-24 1021.61,-29 1025.11,-29"/>
<text text-anchor="middle" x="1052.26" y="-118.8" font-family="Serif" font-size="14.00">¬	clear	a</text>
</g>
<!-- n4&#45;&gt;n5 -->
<!-- handempty -->
<g id="e15" class="edge">
<title>n4:s&#45;&gt;n5:n</title>
<path fill="none" stroke="black" d="M860.37,-222C860.37,-194.54 764.96,-209.73 738.1,-204 726.56,-201.54 643.95,-188.27 627.29,-176.08"/>
<polygon fill="black" stroke="black" points="628.7,-175.04 624.37,-172 625.86,-177.08 628.7,-175.04"/>
<text text-anchor="middle" x="772" y="-192.8" font-family="Serif" font-size="14.00">handempty</text>
</g>
<!-- n6 -->
<!-- stack -->
<g id="n6" class="node">
<title>n6</title>
<polygon fill="none" stroke="black" points="160.37,-74 160.37,-98 280.37,-98 280.37,-74 160.37,-74"/>
<text text-anchor="start" x="204.03" y="-81.8" font-family="Serif" font-size="14.00">stack</text>
</g>
<!-- n4&#45;&gt;n6 -->
<!-- clear	b -->
<g id="e16" class="edge">
<title>n4:s&#45;&gt;n6:n</title>
<path fill="none" stroke="black" d="M836.37,-222C836.37,-202.9 684.3,-206.56 665.37,-204 478.46,-178.75 254.56,-286.34 250.42,-103.22"/>
<polygon fill="black" stroke="black" points="252.17,-102.98 250.37,-98 248.67,-103.02 252.17,-102.98"/>
<text text-anchor="middle" x="300.26" y="-155.8" font-family="Serif" font-size="14.00">clear	b</text>
</g>
<!-- n5&#45;&gt;n2p6 -->
<!-- &not;	ontable	c -->
<g id="e17" class="edge">
<title>n5:s&#45;&gt;n2p6:n</title>
<path fill="none" stroke="black" d="M580.37,-148C580.37,-106.45 529.07,-128.97 501.37,-98 478.22,-72.12 466.58,-61.65 465.46,-29.37"/>
<polygon fill="black" stroke="black" points="467.2,-28.97 465.37,-24 463.7,-29.03 467.2,-28.97"/>
<text text-anchor="middle" x="546.87" y="-81.8" font-family="Serif" font-size="14.00">¬	ontable	c</text>
</g>
<!-- n5&#45;&gt;n2p7 -->
<!-- &not;	clear	c -->
<g id="e18" class="edge">
<title>n5:s&#45;&gt;n2p7:n</title>
<path fill="none" stroke="black" d="M604.37,-148C604.37,-94.36 593.1,-80.24 592.4,-29.07"/>
<polygon fill="black" stroke="black" points="594.15,-28.99 592.37,-24 590.65,-29.01 594.15,-28.99"/>
<text text-anchor="middle" x="644.87" y="-81.8" font-family="Serif" font-size="14.00">¬	clear	c</text>
</g>
<!-- n5&#45;&gt;n2p8 -->
<!-- &not;	handempty -->
<g id="e19" class="edge">
<title>n5:s&#45;&gt;n2p8:n</title>
<path fill="none" stroke="black" d="M628.37,-148C628.37,-111.2 672.86,-127.86 694.37,-98 713.62,-71.26 718.85,-59.89 719.33,-29.11"/>
<polygon fill="black" stroke="black" points="721.08,-29.01 719.37,-24 717.58,-28.99 721.08,-29.01"/>
<text text-anchor="middle" x="758" y="-81.8" font-family="Serif" font-size="14.00">¬	handempty</text>
</g>
<!-- n5&#45;&gt;n6 -->
<!-- holding	c -->
<g id="e20" class="edge">
<title>n5:s&#45;&gt;n6:n</title>
<path fill="none" stroke="black" d="M556.37,-148C556.37,-129.23 406.97,-132.5 388.37,-130 385.86,-129.66 225.28,-105.94 195.19,-99.43"/>
<polygon fill="black" stroke="black" points="195.66,-97.74 190.37,-98 194.67,-101.09 195.66,-97.74"/>
<text text-anchor="middle" x="419.87" y="-118.8" font-family="Serif" font-size="14.00">holding	c</text>
</g>
<!-- n6&#45;&gt;n2p1 -->
<!-- clear	c -->
<g id="e21" class="edge">
<title>n6:s&#45;&gt;n2p1:n</title>
<path fill="none" stroke="black" d="M172.37,-74C172.37,-36.45 29.46,-83.93 4.37,-56 -3.95,-46.74 2.29,-40.07 3.98,-29.02"/>
<polygon fill="black" stroke="black" points="5.72,-29.12 4.37,-24 2.23,-28.85 5.72,-29.12"/>
<text text-anchor="middle" x="35.87" y="-44.8" font-family="Serif" font-size="14.00">clear	c</text>
</g>
<!-- n6&#45;&gt;n2p2 -->
<!-- handempty -->
<g id="e22" class="edge">
<title>n6:s&#45;&gt;n2p2:n</title>
<path fill="none" stroke="black" d="M196.37,-74C196.37,-49.83 109.71,-68.62 89.1,-56 75.53,-47.69 67.19,-42.77 65.63,-29.02"/>
<polygon fill="black" stroke="black" points="67.38,-28.9 65.37,-24 63.88,-29.09 67.38,-28.9"/>
<text text-anchor="middle" x="124" y="-44.8" font-family="Serif" font-size="14.00">handempty</text>
</g>
<!-- n6&#45;&gt;n2p3 -->
<!-- on	c	b -->
<g id="e23" class="edge">
<title>n6:s&#45;&gt;n2p3:n</title>
<path fill="none" stroke="black" d="M220.37,-74C220.37,-52.96 192.54,-69.72 176.58,-56 165.38,-46.37 158.89,-41.67 157.6,-29.04"/>
<polygon fill="black" stroke="black" points="159.35,-28.91 157.37,-24 155.85,-29.08 159.35,-28.91"/>
<text text-anchor="middle" x="209.26" y="-44.8" font-family="Serif" font-size="14.00">on	c	b</text>
</g>
<!-- n6&#45;&gt;n2p4 -->
<!-- &not;	holding	c -->
<g id="e24" class="edge">
<title>n6:s&#45;&gt;n2p4:n</title>
<path fill="none" stroke="black" d="M244.37,-74C244.37,-53.69 244.37,-47.3 244.37,-29.38"/>
<polygon fill="black" stroke="black" points="246.12,-29 244.37,-24 242.62,-29 246.12,-29"/>
<text text-anchor="middle" x="289.87" y="-44.8" font-family="Serif" font-size="14.00">¬	holding	c</text>
</g>
<!-- n6&#45;&gt;n2p5 -->
<!-- &not;	clear	b -->
<g id="e25" class="edge">
<title>n6:s&#45;&gt;n2p5:n</title>
<path fill="none" stroke="black" d="M268.37,-74C268.37,-42.74 310.81,-74 336.37,-56 348.93,-47.15 356.57,-42.37 358.08,-29.24"/>
<polygon fill="black" stroke="black" points="359.85,-29.09 358.37,-24 356.35,-28.9 359.85,-29.09"/>
<text text-anchor="middle" x="398.26" y="-44.8" font-family="Serif" font-size="14.00">¬	clear	b</text>
</g>
</g>
</svg>
