<?xml version="1.0" encoding="UTF-8" standalone="no"?>
<!DOCTYPE svg PUBLIC "-//W3C//DTD SVG 1.1//EN"
 "http://www.w3.org/Graphics/SVG/1.1/DTD/svg11.dtd">
<!-- Generated by graphviz version 2.42.3 (20191010.1750)
 -->
<!-- Title: G Pages: 1 -->
<svg width="383pt" height="180pt"
 viewBox="0.00 0.00 382.86 180.00" xmlns="http://www.w3.org/2000/svg" xmlns:xlink="http://www.w3.org/1999/xlink">
<g id="graph0" class="graph" transform="scale(1 1) rotate(0) translate(4 176)">
<title>G</title>
<polygon fill="white" stroke="transparent" points="-4,4 -4,-176 378.86,-176 378.86,4 -4,4"/>
<!-- n1p1 -->
<!-- n1p2 -->
<!-- n1p1&#45;&gt;n1p2 -->
<!-- n3 -->
<!-- pick&#45;up -->
<g id="n3" class="node">
<title>n3</title>
<polygon fill="none" stroke="black" points="81.59,-74 81.59,-98 177.59,-98 177.59,-74 81.59,-74"/>
<text text-anchor="start" x="107.02" y="-81.8" font-family="Serif" font-size="14.00">pick&#45;up</text>
</g>
<!-- n1p1&#45;&gt;n3 -->
<!-- clear	b -->
<g id="e1" class="edge">
<title>n1p1:s&#45;&gt;n3:n</title>
<path fill="none" stroke="black" d="M67.59,-148C67.59,-133.55 54.22,-128.3 61.8,-116 70.05,-102.62 91.63,-112.71 96.57,-103.01"/>
<polygon fill="black" stroke="black" points="98.31,-103.25 97.59,-98 94.88,-102.55 98.31,-103.25"/>
<text text-anchor="middle" x="94.48" y="-118.8" font-family="Serif" font-size="14.00">clear	b</text>
</g>
<!-- n1p3 -->
<!-- n1p2&#45;&gt;n1p3 -->
<!-- n1p2&#45;&gt;n3 -->
<!-- ontable	b -->
<g id="e2" class="edge">
<title>n1p2:s&#45;&gt;n3:n</title>
<path fill="none" stroke="black" d="M129.59,-148C129.59,-127.69 129.59,-121.3 129.59,-103.38"/>
<polygon fill="black" stroke="black" points="131.34,-103 129.59,-98 127.84,-103 131.34,-103"/>
<text text-anchor="middle" x="161.48" y="-118.8" font-family="Serif" font-size="14.00">ontable	b</text>
</g>
<!-- n1p3&#45;&gt;n3 -->
<!-- handempty -->
<g id="e3" class="edge">
<title>n1p3:s&#45;&gt;n3:n</title>
<path fill="none" stroke="black" d="M191.59,-148C191.59,-133.72 201.88,-128.28 194.59,-116 187.13,-103.43 167.46,-111.87 162.66,-102.98"/>
<polygon fill="black" stroke="black" points="164.35,-102.52 161.59,-98 160.93,-103.26 164.35,-102.52"/>
<text text-anchor="middle" x="231.22" y="-118.8" font-family="Serif" font-size="14.00">handempty</text>
</g>
<!-- n2p1 -->
<!-- n2p2 -->
<!-- n2p1&#45;&gt;n2p2 -->
<!-- n2p3 -->
<!-- n2p2&#45;&gt;n2p3 -->
<!-- n2p4 -->
<!-- n2p3&#45;&gt;n2p4 -->
<!-- n3&#45;&gt;n2p1 -->
<!-- holding	b -->
<g id="e4" class="edge">
<title>n3:s&#45;&gt;n2p1:n</title>
<path fill="none" stroke="black" d="M93.59,-74C93.59,-32.87 28.91,-87.79 2.8,-56 -5.33,-46.1 6.73,-40.23 9.87,-29.11"/>
<polygon fill="black" stroke="black" points="11.63,-29.19 10.59,-24 8.16,-28.71 11.63,-29.19"/>
<text text-anchor="middle" x="35.48" y="-44.8" font-family="Serif" font-size="14.00">holding	b</text>
</g>
<!-- n3&#45;&gt;n2p2 -->
<!-- &not;	ontable	b -->
<g id="e5" class="edge">
<title>n3:s&#45;&gt;n2p2:n</title>
<path fill="none" stroke="black" d="M117.59,-74C117.59,-52.96 85.84,-73.25 73.8,-56 66.74,-45.88 71.01,-39.95 72.27,-29.27"/>
<polygon fill="black" stroke="black" points="74.04,-29.1 72.59,-24 70.54,-28.89 74.04,-29.1"/>
<text text-anchor="middle" x="120.48" y="-44.8" font-family="Serif" font-size="14.00">¬	ontable	b</text>
</g>
<!-- n3&#45;&gt;n2p3 -->
<!-- &not;	clear	b -->
<g id="e6" class="edge">
<title>n3:s&#45;&gt;n2p3:n</title>
<path fill="none" stroke="black" d="M141.59,-74C141.59,-60.67 156.36,-65.62 165.59,-56 176.23,-44.91 185.37,-41.88 187.24,-29.16"/>
<polygon fill="black" stroke="black" points="189,-29.11 187.59,-24 185.5,-28.87 189,-29.11"/>
<text text-anchor="middle" x="225.48" y="-44.8" font-family="Serif" font-size="14.00">¬	clear	b</text>
</g>
<!-- n3&#45;&gt;n2p4 -->
<!-- &not;	handempty -->
<g id="e7" class="edge">
<title>n3:s&#45;&gt;n2p4:n</title>
<path fill="none" stroke="black" d="M165.59,-74C165.59,-49.23 259.55,-74.88 275.59,-56 279.62,-51.26 277.39,-47.96 275.59,-42 273.41,-34.81 267.31,-33.74 264.75,-29.03"/>
<polygon fill="black" stroke="black" points="266.42,-28.48 263.59,-24 263.01,-29.27 266.42,-28.48"/>
<text text-anchor="middle" x="326.22" y="-44.8" font-family="Serif" font-size="14.00">¬	handempty</text>
</g>
</g>
</svg>
