<?xml version="1.0" encoding="UTF-8" standalone="no"?>
<!DOCTYPE svg PUBLIC "-//W3C//DTD SVG 1.1//EN"
 "http://www.w3.org/Graphics/SVG/1.1/DTD/svg11.dtd">
<!-- Generated by graphviz version 2.42.3 (20191010.1750)
 -->
<!-- Title: G Pages: 1 -->
<svg width="433pt" height="180pt"
 viewBox="0.00 0.00 433.37 180.00" xmlns="http://www.w3.org/2000/svg" xmlns:xlink="http://www.w3.org/1999/xlink">
<g id="graph0" class="graph" transform="scale(1 1) rotate(0) translate(4 176)">
<title>G</title>
<polygon fill="white" stroke="transparent" points="-4,4 -4,-176 429.37,-176 429.37,4 -4,4"/>
<!-- n1p1 -->
<!-- n1p2 -->
<!-- n1p1&#45;&gt;n1p2 -->
<!-- n3 -->
<!-- stack -->
<g id="n3" class="node">
<title>n3</title>
<polygon fill="none" stroke="black" points="95.58,-74 95.58,-98 215.58,-98 215.58,-74 95.58,-74"/>
<text text-anchor="start" x="139.24" y="-81.8" font-family="Serif" font-size="14.00">stack</text>
</g>
<!-- n1p1&#45;&gt;n3 -->
<!-- holding	b -->
<g id="e1" class="edge">
<title>n1p1:s&#45;&gt;n3:n</title>
<path fill="none" stroke="black" d="M137.58,-148C137.58,-134.74 119.7,-141.87 113.79,-130 111.02,-124.43 112.01,-121.96 113.79,-116 115.93,-108.84 121.92,-107.72 124.44,-103.01"/>
<polygon fill="black" stroke="black" points="126.18,-103.26 125.58,-98 122.76,-102.49 126.18,-103.26"/>
<text text-anchor="middle" x="146.47" y="-118.8" font-family="Serif" font-size="14.00">holding	b</text>
</g>
<!-- n1p2&#45;&gt;n3 -->
<!-- clear	a -->
<g id="e2" class="edge">
<title>n1p2:s&#45;&gt;n3:n</title>
<path fill="none" stroke="black" d="M186.58,-148C186.58,-127.68 185.74,-121.3 185.6,-103.38"/>
<polygon fill="black" stroke="black" points="187.35,-102.99 185.58,-98 183.85,-103.01 187.35,-102.99"/>
<text text-anchor="middle" x="217.47" y="-118.8" font-family="Serif" font-size="14.00">clear	a</text>
</g>
<!-- n2p1 -->
<!-- n2p2 -->
<!-- n2p1&#45;&gt;n2p2 -->
<!-- n2p3 -->
<!-- n2p2&#45;&gt;n2p3 -->
<!-- n2p4 -->
<!-- n2p3&#45;&gt;n2p4 -->
<!-- n2p5 -->
<!-- n2p4&#45;&gt;n2p5 -->
<!-- n3&#45;&gt;n2p1 -->
<!-- clear	b -->
<g id="e3" class="edge">
<title>n3:s&#45;&gt;n2p1:n</title>
<path fill="none" stroke="black" d="M107.58,-74C107.58,-49.93 16.33,-74.38 0.79,-56 0,-55.06 0.9,-37.96 1.35,-29.08"/>
<polygon fill="black" stroke="black" points="3.11,-29.07 1.58,-24 -0.39,-28.92 3.11,-29.07"/>
<text text-anchor="middle" x="33.47" y="-44.8" font-family="Serif" font-size="14.00">clear	b</text>
</g>
<!-- n3&#45;&gt;n2p2 -->
<!-- handempty -->
<g id="e4" class="edge">
<title>n3:s&#45;&gt;n2p2:n</title>
<path fill="none" stroke="black" d="M131.58,-74C131.58,-50.69 100.2,-70.94 82.31,-56 71.04,-46.59 64.99,-41.63 63.8,-29.02"/>
<polygon fill="black" stroke="black" points="65.55,-28.92 63.58,-24 62.05,-29.07 65.55,-28.92"/>
<text text-anchor="middle" x="117.21" y="-44.8" font-family="Serif" font-size="14.00">handempty</text>
</g>
<!-- n3&#45;&gt;n2p3 -->
<!-- on	b	a -->
<g id="e5" class="edge">
<title>n3:s&#45;&gt;n2p3:n</title>
<path fill="none" stroke="black" d="M155.58,-74C155.58,-53.69 155.58,-47.3 155.58,-29.38"/>
<polygon fill="black" stroke="black" points="157.33,-29 155.58,-24 153.83,-29 157.33,-29"/>
<text text-anchor="middle" x="187.47" y="-44.8" font-family="Serif" font-size="14.00">on	b	a</text>
</g>
<!-- n3&#45;&gt;n2p4 -->
<!-- &not;	holding	b -->
<g id="e6" class="edge">
<title>n3:s&#45;&gt;n2p4:n</title>
<path fill="none" stroke="black" d="M179.58,-74C179.58,-54.1 205.24,-68.68 220.58,-56 232.42,-46.2 240.62,-42.16 242.27,-29.21"/>
<polygon fill="black" stroke="black" points="244.03,-29.09 242.58,-24 240.54,-28.89 244.03,-29.09"/>
<text text-anchor="middle" x="281.47" y="-44.8" font-family="Serif" font-size="14.00">¬	holding	b</text>
</g>
<!-- n3&#45;&gt;n2p5 -->
<!-- &not;	clear	a -->
<g id="e7" class="edge">
<title>n3:s&#45;&gt;n2p5:n</title>
<path fill="none" stroke="black" d="M203.58,-74C203.58,-45.28 312.74,-77.68 331.58,-56 335.66,-51.3 333.49,-47.92 331.58,-42 329.21,-34.66 322.61,-33.83 319.83,-29.11"/>
<polygon fill="black" stroke="black" points="321.47,-28.44 318.58,-24 318.07,-29.27 321.47,-28.44"/>
<text text-anchor="middle" x="379.47" y="-44.8" font-family="Serif" font-size="14.00">¬	clear	a</text>
</g>
</g>
</svg>
