<?xml version="1.0" encoding="UTF-8" standalone="no"?>
<!DOCTYPE svg PUBLIC "-//W3C//DTD SVG 1.1//EN"
 "http://www.w3.org/Graphics/SVG/1.1/DTD/svg11.dtd">
<!-- Generated by graphviz version 2.42.3 (20191010.1750)
 -->
<!-- Title: G Pages: 1 -->
<svg width="380pt" height="180pt"
 viewBox="0.00 0.00 379.56 180.00" xmlns="http://www.w3.org/2000/svg" xmlns:xlink="http://www.w3.org/1999/xlink">
<g id="graph0" class="graph" transform="scale(1 1) rotate(0) translate(4 176)">
<title>G</title>
<polygon fill="white" stroke="transparent" points="-4,4 -4,-176 375.56,-176 375.56,4 -4,4"/>
<!-- n1p1 -->
<!-- n1p2 -->
<!-- n1p1&#45;&gt;n1p2 -->
<!-- n3 -->
<!-- pick&#45;up -->
<g id="n3" class="node">
<title>n3</title>
<polygon fill="none" stroke="black" points="80.3,-74 80.3,-98 176.3,-98 176.3,-74 80.3,-74"/>
<text text-anchor="start" x="105.73" y="-81.8" font-family="Serif" font-size="14.00">pick&#45;up</text>
</g>
<!-- n1p1&#45;&gt;n3 -->
<!-- clear	c -->
<g id="e1" class="edge">
<title>n1p1:s&#45;&gt;n3:n</title>
<path fill="none" stroke="black" d="M67.3,-148C67.3,-133.53 53.76,-128.35 61.3,-116 69.34,-102.82 90.46,-112.51 95.3,-102.93"/>
<polygon fill="black" stroke="black" points="97.02,-103.25 96.3,-98 93.59,-102.55 97.02,-103.25"/>
<text text-anchor="middle" x="92.8" y="-118.8" font-family="Serif" font-size="14.00">clear	c</text>
</g>
<!-- n1p3 -->
<!-- n1p2&#45;&gt;n1p3 -->
<!-- n1p2&#45;&gt;n3 -->
<!-- ontable	c -->
<g id="e2" class="edge">
<title>n1p2:s&#45;&gt;n3:n</title>
<path fill="none" stroke="black" d="M128.3,-148C128.3,-127.69 128.3,-121.3 128.3,-103.38"/>
<polygon fill="black" stroke="black" points="130.05,-103 128.3,-98 126.55,-103 130.05,-103"/>
<text text-anchor="middle" x="159.8" y="-118.8" font-family="Serif" font-size="14.00">ontable	c</text>
</g>
<!-- n1p3&#45;&gt;n3 -->
<!-- handempty -->
<g id="e3" class="edge">
<title>n1p3:s&#45;&gt;n3:n</title>
<path fill="none" stroke="black" d="M189.3,-148C189.3,-133.72 199.51,-128.33 192.3,-116 185.22,-103.9 166.67,-111.35 161.6,-103.33"/>
<polygon fill="black" stroke="black" points="163.18,-102.44 160.3,-98 159.78,-103.27 163.18,-102.44"/>
<text text-anchor="middle" x="228.93" y="-118.8" font-family="Serif" font-size="14.00">handempty</text>
</g>
<!-- n2p1 -->
<!-- n2p2 -->
<!-- n2p1&#45;&gt;n2p2 -->
<!-- n2p3 -->
<!-- n2p2&#45;&gt;n2p3 -->
<!-- n2p4 -->
<!-- n2p3&#45;&gt;n2p4 -->
<!-- n3&#45;&gt;n2p1 -->
<!-- holding	c -->
<g id="e4" class="edge">
<title>n3:s&#45;&gt;n2p1:n</title>
<path fill="none" stroke="black" d="M92.3,-74C92.3,-33.21 28.16,-87.55 2.3,-56 -1.65,-51.19 1,-48.09 2.3,-42 3.69,-35.44 7.64,-33.51 9.41,-29.03"/>
<polygon fill="black" stroke="black" points="11.15,-29.23 10.3,-24 7.71,-28.62 11.15,-29.23"/>
<text text-anchor="middle" x="33.8" y="-44.8" font-family="Serif" font-size="14.00">holding	c</text>
</g>
<!-- n3&#45;&gt;n2p2 -->
<!-- &not;	ontable	c -->
<g id="e5" class="edge">
<title>n3:s&#45;&gt;n2p2:n</title>
<path fill="none" stroke="black" d="M116.3,-74C116.3,-52.87 84.34,-73.36 72.3,-56 65.26,-45.86 69.67,-39.94 70.97,-29.27"/>
<polygon fill="black" stroke="black" points="72.74,-29.1 71.3,-24 69.24,-28.88 72.74,-29.1"/>
<text text-anchor="middle" x="117.8" y="-44.8" font-family="Serif" font-size="14.00">¬	ontable	c</text>
</g>
<!-- n3&#45;&gt;n2p3 -->
<!-- &not;	clear	c -->
<g id="e6" class="edge">
<title>n3:s&#45;&gt;n2p3:n</title>
<path fill="none" stroke="black" d="M140.3,-74C140.3,-61.02 154.4,-65.46 163.3,-56 173.82,-44.8 183.05,-41.86 184.94,-29.15"/>
<polygon fill="black" stroke="black" points="186.7,-29.11 185.3,-24 183.21,-28.87 186.7,-29.11"/>
<text text-anchor="middle" x="222.8" y="-44.8" font-family="Serif" font-size="14.00">¬	clear	c</text>
</g>
<!-- n3&#45;&gt;n2p4 -->
<!-- &not;	handempty -->
<g id="e7" class="edge">
<title>n3:s&#45;&gt;n2p4:n</title>
<path fill="none" stroke="black" d="M164.3,-74C164.3,-49.67 256.57,-74.57 272.3,-56 276.32,-51.25 274.1,-47.96 272.3,-42 270.12,-34.81 264.02,-33.74 261.45,-29.03"/>
<polygon fill="black" stroke="black" points="263.12,-28.48 260.3,-24 259.71,-29.27 263.12,-28.48"/>
<text text-anchor="middle" x="322.93" y="-44.8" font-family="Serif" font-size="14.00">¬	handempty</text>
</g>
</g>
</svg>
