<?xml version="1.0" encoding="UTF-8" standalone="no"?>
<!DOCTYPE svg PUBLIC "-//W3C//DTD SVG 1.1//EN"
 "http://www.w3.org/Graphics/SVG/1.1/DTD/svg11.dtd">
<!-- Generated by graphviz version 2.42.3 (20191010.1750)
 -->
<!-- Title: G Pages: 1 -->
<svg width="432pt" height="180pt"
 viewBox="0.00 0.00 431.78 180.00" xmlns="http://www.w3.org/2000/svg" xmlns:xlink="http://www.w3.org/1999/xlink">
<g id="graph0" class="graph" transform="scale(1 1) rotate(0) translate(4 176)">
<title>G</title>
<polygon fill="white" stroke="transparent" points="-4,4 -4,-176 427.78,-176 427.78,4 -4,4"/>
<!-- n1p1 -->
<!-- n1p2 -->
<!-- n1p1&#45;&gt;n1p2 -->
<!-- n3 -->
<!-- stack -->
<g id="n3" class="node">
<title>n3</title>
<polygon fill="none" stroke="black" points="95,-74 95,-98 215,-98 215,-74 95,-74"/>
<text text-anchor="start" x="138.66" y="-81.8" font-family="Serif" font-size="14.00">stack</text>
</g>
<!-- n1p1&#45;&gt;n3 -->
<!-- holding	c -->
<g id="e1" class="edge">
<title>n1p1:s&#45;&gt;n3:n</title>
<path fill="none" stroke="black" d="M136,-148C136,-135.02 118.68,-141.67 113,-130 110.27,-124.41 111.19,-121.96 113,-116 115.17,-108.81 121.27,-107.74 123.84,-103.03"/>
<polygon fill="black" stroke="black" points="125.58,-103.27 125,-98 122.17,-102.48 125.58,-103.27"/>
<text text-anchor="middle" x="144.5" y="-118.8" font-family="Serif" font-size="14.00">holding	c</text>
</g>
<!-- n1p2&#45;&gt;n3 -->
<!-- clear	b -->
<g id="e2" class="edge">
<title>n1p2:s&#45;&gt;n3:n</title>
<path fill="none" stroke="black" d="M185,-148C185,-127.69 185,-121.3 185,-103.38"/>
<polygon fill="black" stroke="black" points="186.75,-103 185,-98 183.25,-103 186.75,-103"/>
<text text-anchor="middle" x="216.89" y="-118.8" font-family="Serif" font-size="14.00">clear	b</text>
</g>
<!-- n2p1 -->
<!-- n2p2 -->
<!-- n2p1&#45;&gt;n2p2 -->
<!-- n2p3 -->
<!-- n2p2&#45;&gt;n2p3 -->
<!-- n2p4 -->
<!-- n2p3&#45;&gt;n2p4 -->
<!-- n2p5 -->
<!-- n2p4&#45;&gt;n2p5 -->
<!-- n3&#45;&gt;n2p1 -->
<!-- clear	c -->
<g id="e3" class="edge">
<title>n3:s&#45;&gt;n2p1:n</title>
<path fill="none" stroke="black" d="M107,-74C107,-50.11 16.41,-74.25 1,-56 0,-54.82 1.12,-37.95 1.69,-29.14"/>
<polygon fill="black" stroke="black" points="3.45,-29.09 2,-24 -0.04,-28.89 3.45,-29.09"/>
<text text-anchor="middle" x="32.5" y="-44.8" font-family="Serif" font-size="14.00">clear	c</text>
</g>
<!-- n3&#45;&gt;n2p2 -->
<!-- handempty -->
<g id="e4" class="edge">
<title>n3:s&#45;&gt;n2p2:n</title>
<path fill="none" stroke="black" d="M131,-74C131,-50.69 99.62,-70.94 81.73,-56 70.46,-46.59 64.41,-41.63 63.22,-29.02"/>
<polygon fill="black" stroke="black" points="64.96,-28.92 63,-24 61.47,-29.07 64.96,-28.92"/>
<text text-anchor="middle" x="116.63" y="-44.8" font-family="Serif" font-size="14.00">handempty</text>
</g>
<!-- n3&#45;&gt;n2p3 -->
<!-- on	c	b -->
<g id="e5" class="edge">
<title>n3:s&#45;&gt;n2p3:n</title>
<path fill="none" stroke="black" d="M155,-74C155,-53.69 155,-47.3 155,-29.38"/>
<polygon fill="black" stroke="black" points="156.75,-29 155,-24 153.25,-29 156.75,-29"/>
<text text-anchor="middle" x="186.89" y="-44.8" font-family="Serif" font-size="14.00">on	c	b</text>
</g>
<!-- n3&#45;&gt;n2p4 -->
<!-- &not;	holding	c -->
<g id="e6" class="edge">
<title>n3:s&#45;&gt;n2p4:n</title>
<path fill="none" stroke="black" d="M179,-74C179,-54.1 204.66,-68.68 220,-56 231.84,-46.2 240.04,-42.16 241.69,-29.21"/>
<polygon fill="black" stroke="black" points="243.45,-29.09 242,-24 239.96,-28.89 243.45,-29.09"/>
<text text-anchor="middle" x="280.5" y="-44.8" font-family="Serif" font-size="14.00">¬	holding	c</text>
</g>
<!-- n3&#45;&gt;n2p5 -->
<!-- &not;	clear	b -->
<g id="e7" class="edge">
<title>n3:s&#45;&gt;n2p5:n</title>
<path fill="none" stroke="black" d="M203,-74C203,-45.5 311.31,-77.52 330,-56 334.08,-51.3 331.91,-47.92 330,-42 327.63,-34.66 321.03,-33.83 318.25,-29.11"/>
<polygon fill="black" stroke="black" points="319.89,-28.44 317,-24 316.49,-29.27 319.89,-28.44"/>
<text text-anchor="middle" x="377.89" y="-44.8" font-family="Serif" font-size="14.00">¬	clear	b</text>
</g>
</g>
</svg>
